<svg width="143" height="339" xmlns="http://www.w3.org/2000/svg">

 <g>
  <title>Layer 1</title>
  <metadata id="svg_17">image/svg+xml</metadata>

  <metadata id="svg_33">image/svg+xml</metadata>

  <g id="svg_34">
   <path stroke-width="3" stroke="#131516" fill="#131516" id="svg_26" d="m42029.81348,2371.9393l0,-337.97297l10.57028,0l0,377.00397c-0.22021,11.97542 -4.84471,23.28554 -13.8735,34.15212c-9.02878,10.86658 -19.81928,19.73727 -32.81192,26.39028c-12.77243,6.43124 -24.88421,9.97952 -36.11513,10.42305c-11.67135,0 -20.92035,-1.55237 -27.96721,-4.43534c-6.82664,-2.88297 -11.89157,-7.76185 -15.19478,-14.85839c-3.083,-7.09655 -4.84471,-17.07606 -4.84471,-29.71678c0.44043,-13.52779 5.06493,-25.72498 14.09371,-36.59156c9.249,-10.64482 20.70014,-19.07197 34.35342,-25.28144c13.65328,-5.98771 27.08635,-8.87068 40.07899,-8.87068c12.55221,0 23.12249,3.10474 31.71085,9.75775zm-78.83669,40.80514c-4.6245,2.88297 -10.57028,8.64891 -17.83735,17.29783c-7.26707,8.64891 -11.23093,15.96723 -11.67135,22.1767c0.88086,6.20948 4.84471,9.97952 11.45114,11.53189c6.60643,0 15.19478,-2.21767 25.76506,-6.65301c10.35007,-4.21357 20.47992,-10.20128 30.16935,-17.74136c6.38621,-4.21357 14.53414,-11.75365 24.22357,-22.39847c9.68943,-10.64482 14.53414,-19.29373 14.53414,-25.94674c0,-6.20948 -3.083,-9.97952 -9.68943,-11.53189c-16.07564,0 -38.31728,11.08835 -66.94513,33.26506z" class="fil1 str1"/>
   <path stroke-width="3" stroke="#131516" fill="#131516" id="svg_25" d="m41651.04501,2410.9703c0.88086,16.41076 5.72557,30.16032 14.53414,40.80514c8.80857,10.64482 19.37885,15.96723 31.71085,15.96723c9.46921,-1.10884 16.07564,-4.21357 19.81928,-9.53598c3.52343,-5.32241 5.28514,-14.63662 5.28514,-27.72088c-1.32129,-16.85429 -6.166,-30.60385 -14.97457,-41.0269c-8.80857,-10.42305 -19.37885,-15.74546 -32.15128,-15.74546c-8.80857,1.55237 -14.97457,4.65711 -18.71821,9.75775c-3.74364,4.87887 -5.50536,14.19309 -5.50536,27.49911zm-55.05356,9.31422c0,-13.52779 4.84471,-24.39437 14.75435,-32.59975c9.90964,-8.42715 21.80121,-14.19309 35.67471,-17.74136c13.65328,-3.32651 26.42571,-5.10064 38.09706,-5.10064c12.77243,0 26.20549,1.77414 40.07899,5.10064c14.09371,3.32651 26.20549,9.31422 36.55556,17.5196c10.35007,8.20538 15.85542,19.29373 16.29585,32.82152c0,13.52779 -4.84471,24.61614 -14.75435,33.04329c-9.90964,8.42715 -21.80121,14.41486 -35.45449,17.96313c-13.8735,3.54827 -26.86614,5.32241 -39.19813,5.32241c-13.21285,0 -26.64592,-1.77414 -40.73963,-5.10064c-13.8735,-3.54827 -25.76506,-9.31422 -35.89492,-17.74136c-9.90964,-8.42715 -15.19478,-19.5155 -15.415,-33.48682z" class="fil1 str1"/>
   <path stroke-width="3" stroke="#131516" fill="#131516" id="svg_24" d="m42302.87913,2033.96634l0,370.79449c0,13.74956 -4.40428,26.16851 -13.21285,37.0351c-8.80857,11.08835 -20.03949,19.73727 -33.47256,25.72498c-13.65328,5.98771 -26.86614,9.09245 -39.85878,9.09245c-12.332,0 -22.68207,-3.32651 -31.05021,-9.75775c-8.36814,-6.65301 -12.99264,-15.74546 -13.8735,-27.49911c0.44043,-12.86249 5.28514,-25.05968 14.31392,-36.36979c9.02878,-11.31012 20.47992,-20.40257 33.91299,-27.05558c13.43307,-6.87478 26.64592,-10.20128 39.41835,-10.20128c12.99264,0 24.22357,3.77004 33.25235,11.08835l0,-342.85184l10.57028,0z" class="fil1 str1"/>
   <path stroke-width="3" stroke="#131516" fill="#131516" id="svg_23" d="m42555.90528,2033.07927l10.57028,0c2.64257,16.85429 5.94578,31.04739 10.35007,42.57927c4.18407,11.31012 9.249,21.06787 14.75435,29.27325c5.72557,8.20538 14.31392,18.62843 25.76506,31.49092c11.45114,12.86249 20.47992,23.72907 27.52678,32.82152c21.14057,27.27735 31.71085,55.88529 31.71085,85.60208c0,30.60385 -12.77243,67.86071 -38.7577,111.77059l-7.04686,0c3.30321,-7.76185 7.26707,-16.63253 11.67135,-26.61204c4.18407,-10.20128 7.92771,-19.29373 11.01071,-27.49911c2.86278,-8.20538 5.28514,-16.41076 7.04686,-24.61614c1.5415,-8.20538 2.42236,-16.18899 2.42236,-24.17261c0,-12.64072 -2.42236,-25.28144 -7.48728,-37.92216c-5.06493,-12.86249 -12.332,-24.61614 -21.36078,-35.48273c-9.249,-10.86658 -19.59907,-19.5155 -31.27042,-26.39028c-11.67135,-6.65301 -23.78314,-10.42305 -36.33535,-11.08835l0,251.04029c0,14.19309 -4.18407,27.05558 -12.99264,38.14393c-8.58835,11.08835 -19.81928,19.73727 -33.47256,25.72498c-13.43307,5.98771 -26.86614,8.87068 -40.2992,8.87068c-12.77243,0 -23.56292,-3.32651 -32.15128,-9.75775c-8.36814,-6.43124 -12.77243,-15.96723 -12.77243,-28.38618c0,-13.08426 4.40428,-25.28144 12.99264,-36.59156c8.58835,-11.08835 19.59907,-19.95903 32.81192,-26.39028c13.21285,-6.43124 25.98528,-9.75775 38.31728,-9.75775c17.17671,0 29.50871,3.32651 36.99599,10.20128l0,-226.64591l0,-116.20593z" class="fil1 str1"/>
   <path stroke-width="3" stroke="#131516" fill="#131516" id="svg_22" d="m42859.50171,2376.81818l0,-342.85184l11.45114,0c1.5415,17.07606 5.28514,30.38208 11.45114,39.47453c5.94578,9.09245 15.85542,19.95903 29.94914,32.15622c13.8735,12.41895 24.66399,23.72907 32.59171,33.93036c11.45114,14.41486 20.03949,28.38618 26.20549,41.6922c5.94578,13.30602 9.02878,28.60795 9.02878,46.12754c0,13.52779 -1.98193,27.49911 -6.166,42.13574c7.7075,10.42305 11.45114,26.83381 11.45114,48.78875c0,14.19309 -1.76171,28.16441 -5.50536,42.13574c-3.96386,13.97132 -9.46921,26.16851 -16.73628,36.36979l-7.26707,0c13.8735,-27.05558 20.70014,-50.78465 20.70014,-70.96545c0,-38.58746 -22.24164,-69.19132 -66.94513,-91.81155c-3.30321,-1.77414 -7.92771,-4.65711 -13.8735,-8.87068c-6.166,-3.99181 -11.01071,-7.31831 -14.09371,-9.31422c-3.30321,-1.9959 -6.82664,-3.99181 -10.7905,-5.32241l0,195.15499c0,13.30602 -4.40428,25.50321 -12.99264,36.36979c-8.80857,10.86658 -19.81928,19.29373 -33.25235,25.50321c-13.43307,5.98771 -26.64592,9.09245 -39.63856,9.09245c-12.55221,0 -22.90228,-2.88297 -31.05021,-8.64891c-8.36814,-5.76594 -12.99264,-14.41486 -13.8735,-25.94674c0,-13.08426 4.40428,-25.50321 13.43307,-37.25686c9.02878,-11.75365 20.47992,-21.06787 34.13321,-27.94265c13.8735,-6.87478 27.08635,-10.20128 40.07899,-10.20128c13.43307,0 24.00335,3.32651 31.71085,10.20128zm14.09371,-260.3545c0,19.5155 5.06493,36.36979 15.19478,50.56288c10.35007,14.19309 24.88421,30.38208 44.04285,48.78875c18.93842,18.40666 30.82999,32.15622 35.67471,41.47044c1.10107,-5.76594 1.5415,-11.97542 1.5415,-18.62843c0,-14.63662 -2.86278,-28.38618 -8.80857,-40.80514c-5.94578,-12.64072 -13.65328,-23.95084 -22.90228,-33.70859c-9.249,-9.75775 -19.37885,-18.40666 -30.16935,-26.16851c-11.01071,-7.76185 -22.46185,-14.85839 -34.57363,-21.5114z" class="fil1 str1"/>
   <path stroke-width="3" stroke="#131516" fill="#131516" id="svg_21" d="m43120.89601,2376.81818l0,-407.16428l10.7905,0c1.32129,14.85839 4.18407,26.61204 8.58835,34.81743c4.40428,8.20538 10.7905,16.63253 19.81928,25.05968c8.80857,8.42715 21.36078,20.1808 37.43642,35.48273c28.84806,27.94265 43.16199,60.76417 43.16199,98.9081c0,13.08426 -1.76171,25.94674 -5.28514,39.031c3.52343,11.08835 5.28514,23.06377 5.28514,35.48273c0,9.75775 -1.32129,21.06787 -4.40428,33.70859c7.04686,9.09245 10.57028,23.50731 10.57028,43.46634c0,13.74956 -1.76171,27.94265 -5.72557,42.13574c-3.74364,14.19309 -9.249,26.83381 -16.73628,38.14393l-7.04686,0c13.21285,-27.72088 19.81928,-51.67172 19.81928,-71.85252c0,-12.86249 -2.42236,-24.61614 -7.48728,-35.03919c-5.06493,-10.64482 -12.11178,-20.1808 -21.14057,-28.82972c-9.02878,-8.42715 -18.71821,-16.41076 -29.28849,-23.72907c-10.57028,-7.09655 -26.42571,-17.5196 -47.56627,-30.82562l0,200.03387c0,13.08426 -4.40428,25.05968 -13.21285,35.92626c-8.80857,10.86658 -19.81928,19.5155 -33.25235,25.72498c-13.43307,6.20948 -26.64592,9.31422 -39.63856,9.31422c-13.21285,0 -24.00335,-3.32651 -32.37149,-9.75775c-8.36814,-6.65301 -12.55221,-16.41076 -12.55221,-29.27325c0,-12.64072 4.6245,-24.39437 13.65328,-35.26096c8.80857,-10.86658 20.25971,-19.5155 33.91299,-26.16851c13.65328,-6.43124 26.42571,-9.53598 38.53749,-9.53598c14.31392,0 25.76506,3.32651 34.13321,10.20128zm12.332,-326.44108c0,13.08426 3.083,24.39437 8.80857,33.48682c5.72557,9.31422 15.85542,20.62433 30.16935,33.93036c14.31392,13.30602 25.54485,24.17261 33.69278,33.04329c8.14793,8.87068 15.85542,20.8461 22.90228,35.70449c0.88086,-5.32241 1.32129,-10.42305 1.32129,-15.08016c0,-18.1849 -4.84471,-34.59566 -14.75435,-49.45405c-9.90964,-15.08016 -20.92035,-27.27735 -33.47256,-37.0351c-12.332,-9.75775 -28.62785,-21.28964 -48.66734,-34.59566zm-0.88086,77.17493c0.88086,13.97132 4.84471,26.39028 11.89157,37.47863c7.04686,11.08835 15.85542,21.73317 26.64592,32.15622c10.7905,10.20128 22.02142,20.62433 33.47256,31.49092c11.45114,10.86658 19.59907,20.8461 24.44378,29.71678c0.44043,-2.43944 0.44043,-5.98771 0.44043,-10.64482c0,-44.79694 -32.15128,-84.93678 -96.89426,-120.19774z" class="fil1 str1"/>
   <path stroke-width="3" stroke="#131516" fill="#131516" id="svg_20" d="m43626.03443,2414.1571l0,-436.43753l0,-68.30425l10.57028,0c0,17.29783 3.96386,31.49092 12.11178,42.3575c8.14793,10.64482 21.14057,24.61614 39.41835,41.6922c18.27778,17.07606 32.15128,33.48682 41.40028,49.23228c9.249,15.96723 13.8735,36.14803 13.8735,60.5424c0,11.75365 -1.5415,25.72498 -4.40428,41.6922c5.28514,10.20128 7.92771,23.28554 7.92771,39.031c0,15.08016 -2.64257,29.27325 -7.92771,42.57927c5.72557,13.30602 8.80857,27.49911 8.80857,42.13574c0,14.41486 -3.083,27.49911 -8.80857,39.031c6.82664,10.42305 10.35007,25.28144 10.35007,44.35341c0,27.05558 -6.60643,54.55469 -19.81928,82.94087l-7.92771,0c12.11178,-34.59566 18.05757,-61.42947 18.05757,-80.27967c0,-14.41486 -2.64257,-25.94674 -7.92771,-35.03919c-5.50536,-9.09245 -11.67135,-16.18899 -18.498,-21.06787c-6.82664,-4.87887 -18.71821,-12.41895 -35.67471,-22.62024c-16.9565,-10.20128 -30.16935,-19.29373 -40.07899,-27.27735l-0.88086,194.26793c0,14.63662 -4.40428,27.49911 -12.99264,38.80923c-8.80857,11.31012 -19.81928,19.73727 -33.25235,25.72498c-13.43307,5.98771 -26.64592,9.09245 -39.63856,9.09245c-13.21285,0 -24.00335,-3.10474 -32.81192,-9.53598c-8.58835,-6.43124 -12.99264,-15.52369 -12.99264,-27.72088c0,-12.86249 4.6245,-25.05968 13.8735,-36.14803c9.02878,-11.31012 20.92035,-20.1808 35.01406,-26.83381c14.09371,-6.65301 27.96721,-9.75775 41.40028,-9.75775c12.99264,0 23.12249,2.43944 30.82999,7.54008zm11.45114,-341.07771c0,15.30193 3.083,27.94265 9.02878,38.14393c5.94578,10.20128 16.29585,21.73317 30.82999,34.81743c14.53414,13.08426 25.98528,23.72907 34.13321,32.37799c8.14793,8.64891 15.63521,20.1808 22.46185,34.81743c1.32129,-5.54418 1.76171,-11.53189 1.76171,-18.1849c0,-17.07606 -4.6245,-33.26506 -14.31392,-48.56698c-9.46921,-15.52369 -21.58099,-29.27325 -36.55556,-41.24867c-14.75435,-12.19719 -30.60978,-22.84201 -47.34606,-32.15622zm-0.88086,81.61027c0,14.85839 3.74364,28.82972 11.01071,41.47044c7.26707,12.64072 16.9565,25.05968 28.84806,37.25686c12.11178,11.97542 23.56292,23.50731 34.57363,34.15212c10.7905,10.86658 18.27778,20.62433 22.02142,29.05148c1.5415,-7.31831 2.20214,-13.74956 2.20214,-19.07197c0,-26.16851 -9.90964,-49.89758 -29.94914,-71.40899c-20.03949,-21.28964 -42.94177,-38.3657 -68.70684,-51.44995zm0.88086,-164.10761c0,14.63662 2.86278,27.05558 8.36814,37.0351c5.50536,9.97952 15.63521,21.73317 29.94914,35.26096c14.53414,13.52779 25.54485,24.39437 33.47256,32.59975c7.7075,8.20538 15.63521,20.1808 23.78314,35.70449c0.88086,-5.76594 1.32129,-11.08835 1.32129,-16.41076c0,-20.62433 -5.06493,-38.58746 -15.19478,-54.11116c-10.12985,-15.74546 -21.80121,-28.38618 -34.57363,-38.14393c-12.77243,-9.75775 -28.40764,-20.40257 -47.12585,-31.93445z" class="fil1 str1"/>
  </g>
  <path stroke="#131516" stroke-width="3" fill="#131516" id="svg_9" d="m30.34676,303.34543c0.46155,8.53864 3.00006,15.69264 7.61554,21.23121c4.61548,5.53858 10.15406,8.30787 16.61573,8.30787c4.96164,-0.57694 8.42325,-2.19235 10.38483,-4.96164c1.84619,-2.76929 2.76929,-7.61554 2.76929,-14.42338c-0.69232,-8.76941 -3.23084,-15.92341 -7.84632,-21.3466c-4.61548,-5.42319 -10.15406,-8.19248 -16.84651,-8.19248c-4.61548,0.80771 -7.84632,2.42313 -9.8079,5.07703c-1.96158,2.53851 -2.88468,7.38477 -2.88468,14.30799zm-28.84676,4.84626c0,-7.03861 2.53851,-12.69257 7.73093,-16.96189c5.19242,-4.38471 11.42332,-7.38477 18.6927,-9.23096c7.154,-1.73081 13.84644,-2.6539 19.96196,-2.6539c6.69245,0 13.73106,0.9231 21.00044,2.6539c7.38477,1.73081 13.73106,4.84626 19.15425,9.11558c5.42319,4.26932 8.30787,10.03867 8.53864,17.07728c0,7.03861 -2.53851,12.80796 -7.73093,17.19267c-5.19242,4.38471 -11.42332,7.50016 -18.57731,9.34635c-7.26938,1.84619 -14.07722,2.76929 -20.53889,2.76929c-6.92322,0 -13.96183,-0.9231 -21.3466,-2.6539c-7.26938,-1.84619 -13.50028,-4.84626 -18.80809,-9.23096c-5.19242,-4.38471 -7.96171,-10.15406 -8.07709,-17.42344z" class="fil1 str1"/>
 </g>
</svg>