<?xml version="1.0" encoding="utf-8"?>
<svg viewBox="20.065 -175.608 9.034 16.667" xmlns="http://www.w3.org/2000/svg">
  <g id="g128" style="fill:#000000;fill-rule:evenodd;stroke:#000000;stroke-width:0;stroke-linecap:butt;stroke-linejoin:round;stroke-miterlimit:10" transform="matrix(1.8, 0, 0, 1.8, -933.865173, -310.266785)">
    <path id="path130" style="fill:#000000;stroke:#000000" d="m 531.098,74.847 c -0.52,0.098 -0.918,0.457 -1.098,0.953 -0.039,0.16 -0.039,0.199 -0.039,0.418 0,0.301 0.019,0.461 0.16,0.699 0.199,0.399 0.617,0.719 1.094,0.836 0.5,0.141 1.336,0.02 2.293,-0.297 l 0.238,-0.082 -1.176,3.25 -1.156,3.246 c 0,0 0.039,0.02 0.102,0.063 0.117,0.078 0.316,0.137 0.457,0.137 0.238,0 0.539,-0.137 0.578,-0.258 0,-0.039 0.558,-1.934 1.234,-4.184 l 1.195,-4.125 -0.039,-0.058 c -0.097,-0.121 -0.296,-0.16 -0.418,-0.063 -0.039,0.039 -0.101,0.121 -0.14,0.18 -0.18,0.301 -0.637,0.836 -0.875,1.035 -0.219,0.18 -0.34,0.199 -0.539,0.121 -0.18,-0.098 -0.239,-0.199 -0.36,-0.738 -0.117,-0.535 -0.257,-0.778 -0.558,-0.977 -0.278,-0.179 -0.637,-0.238 -0.953,-0.156 z"/>
  </g>
</svg>