<?xml version="1.0" encoding="utf-8"?>
<svg viewBox="320.167 -185.045 14.886 43.571" xmlns="http://www.w3.org/2000/svg">
  <path id="path110" style="fill:#000000;fill-rule:evenodd;stroke:#000000;stroke-width:0;stroke-linecap:butt;stroke-linejoin:round;stroke-miterlimit:10" d="M 668.67281,2.1429712 C 667.73861,2.3247712 667.02041,2.9727712 666.70361,3.8655712 C 666.62621,4.1535712 666.62621,4.2237712 666.62621,4.6179712 C 666.62621,5.0103712 666.62621,5.1579712 666.70361,5.3703712 C 666.95021,6.1641712 667.45601,6.7689712 668.24441,7.1271712 C 668.81321,7.4151712 669.03101,7.4511712 669.81941,7.4511712 C 670.36121,7.4511712 670.57181,7.4511712 671.00741,7.3809712 C 671.57621,7.2747712 672.36461,7.0569712 672.97661,6.8463712 L 673.37081,6.6987712 L 673.33481,6.8463712 C 673.30061,6.9165712 673.04681,8.1675712 672.72281,9.6021712 C 672.15401,12.113171 672.11801,12.260771 671.93621,12.582971 C 671.54201,13.405571 670.97321,14.193971 670.57181,14.447771 C 670.36121,14.588171 670.17761,14.588171 669.93101,14.481971 C 669.60881,14.305571 669.49541,14.123771 669.28481,13.153571 C 669.10121,12.435371 668.96081,12.042971 668.67281,11.753171 C 667.92041,10.930571 666.62621,10.826171 665.62181,11.472371 C 665.15741,11.789171 664.79921,12.294971 664.58861,12.829571 C 664.51121,13.117571 664.51121,13.187771 664.51121,13.581971 C 664.51121,14.123771 664.54541,14.411771 664.79921,14.840171 C 665.15741,15.558371 665.90981,16.134371 666.77561,16.344971 C 667.16801,16.458371 668.17421,16.458371 668.85641,16.344971 C 669.42521,16.240571 670.10741,16.056971 670.78961,15.846371 C 671.11361,15.740171 671.33141,15.662771 671.36561,15.662771 C 671.36561,15.698771 670.14341,21.084371 670.07321,21.260771 C 669.85361,21.725171 669.28481,22.625171 668.85641,23.087771 C 668.38481,23.517971 668.17421,23.595371 667.78001,23.447771 C 667.45601,23.271371 667.34441,23.087771 667.13381,22.117571 C 666.95021,21.401171 666.80981,21.006971 666.52181,20.726171 C 665.76941,19.896371 664.47521,19.790171 663.47081,20.438171 C 663.00641,20.760371 662.64821,21.260771 662.42861,21.802571 C 662.35841,22.083371 662.35841,22.160771 662.35841,22.553171 C 662.35841,23.087771 662.39441,23.377571 662.64821,23.805971 C 663.00641,24.522371 663.75881,25.100171 664.62281,25.310771 C 665.55161,25.562771 667.09781,25.352171 668.85641,24.776171 C 669.10121,24.669971 669.35501,24.592571 669.35501,24.592571 C 669.35501,24.635771 669.06701,25.816571 668.74301,27.285371 C 668.20841,29.796371 668.17421,29.978171 667.99061,30.294971 C 667.70261,30.906971 667.06361,31.772771 666.62621,32.165171 C 666.26801,32.489171 666.02321,32.559371 665.66321,32.411771 C 665.34101,32.235371 665.22761,32.053571 665.01701,31.090571 C 664.83341,30.372371 664.69301,29.978171 664.40501,29.690171 C 663.65261,28.860371 662.35841,28.755971 661.35401,29.402171 C 660.88961,29.726171 660.53141,30.224771 660.32081,30.766571 C 660.24341,31.054571 660.24341,31.124771 660.24341,31.518971 C 660.24341,32.053571 660.27761,32.341571 660.53141,32.769971 C 660.88961,33.488171 661.64201,34.064171 662.50601,34.281971 C 663.43481,34.528571 665.22761,34.281971 666.98621,33.669971 C 667.20401,33.599771 667.34441,33.565571 667.34441,33.565571 C 667.34441,33.599771 664.83341,44.856971 664.72901,45.215171 C 664.72901,45.292571 664.76321,45.328571 664.90361,45.398771 C 665.12321,45.539171 665.48141,45.652571 665.73341,45.652571 C 665.98001,45.652571 666.33821,45.539171 666.55601,45.398771 C 666.70361,45.328571 666.73961,45.292571 666.77561,45.110771 C 666.77561,45.004571 668.67281,35.568971 671.00741,24.128171 C 674.69921,5.6925712 675.16361,3.3309712 675.12761,3.2535712 C 675.02321,3.0771712 674.88101,3.0069712 674.66321,3.0069712 C 674.34101,3.0069712 674.27081,3.0771712 673.94681,3.6891712 C 673.48241,4.5819712 673.01081,5.2281712 672.68861,5.4819712 C 672.51221,5.6223712 672.32861,5.6223712 672.04781,5.5179712 C 671.72561,5.3343712 671.61221,5.1579712 671.40161,4.1877712 C 671.18381,3.2175712 670.93001,2.7891712 670.39541,2.4309712 C 669.88961,2.1069712 669.25061,2.0025712 668.67281,2.1429712 z" transform="matrix(1, 0, 0, 1, -340.076172, -187.127441)"/>
</svg>